<svg xmlns="http://www.w3.org/2000/svg" width="308" height="120.061" viewBox="0 0 308 120.061">
  <g id="Raggruppa_774" data-name="Raggruppa 774" transform="translate(0 -2.95)">
    <rect id="Rettangolo_865" data-name="Rettangolo 865" width="132.696" height="120.061" transform="translate(175.304 2.95)" fill="#005ea8"/>
    <g id="Raggruppa_772" data-name="Raggruppa 772" transform="translate(0 10.97)">
      <path id="Tracciato_7702" data-name="Tracciato 7702" d="M57.217,78.172c-2.962,4.68-7.436,8.55-14.57,8.55-9.868,0-15.067-5.6-15.067-15.478,0-9.566,7.566-14.051,16.213-14.667l13.132-.908V52.923c0-7.739-3.156-11.1-10.9-11.1a28.243,28.243,0,0,0-13.846,3.772l-2.345-5.5A35.43,35.43,0,0,1,46.052,35.77c12.527,0,17.726,4.9,17.726,17.423V85.619H57.217ZM43.263,80.928c6.928,0,11.306-4.885,13.64-10.69V61.073l-12.516.886c-5.2.411-9.576,3.459-9.576,9.263C34.811,76.853,37.664,80.928,43.263,80.928Z" transform="translate(-27.58 -35.77)" fill="#1a171b"/>
      <path id="Tracciato_7703" data-name="Tracciato 7703" d="M106.337,85.554H98.6L88.871,67.018l-3.459.205h-8.7V85.6H69.88V36.57h16.5c9.728,0,16.494,4.885,16.494,14.667,0,6.2-2.756,10.9-7.436,13.64ZM95.745,51.237c0-5.61-3.761-8.863-9.36-8.863H76.657V61.516h9.36C92.491,61.516,95.745,57.647,95.745,51.237Z" transform="translate(-24.16 -35.705)" fill="#1a171b"/>
      <path id="Tracciato_7704" data-name="Tracciato 7704" d="M114.96,85.554h-6.82V36.57h16.8c9.976,0,17.207,5.7,17.207,15.683,0,10.182-7.026,16.083-17.207,16.083H114.96Zm20.05-33.3c0-6.107-4.075-9.728-10.182-9.728h-9.879V62.532h9.879C131.151,62.532,135.01,58.565,135.01,52.253Z" transform="translate(-21.066 -35.705)" fill="#1a171b"/>
      <path id="Tracciato_7705" data-name="Tracciato 7705" d="M173.477,78.172c-2.951,4.68-7.436,8.55-14.559,8.55-9.879,0-15.078-5.6-15.078-15.478,0-9.566,7.566-14.051,16.213-14.667l13.143-.9V52.923c0-7.739-3.156-11.1-10.9-11.1a28.253,28.253,0,0,0-13.857,3.772l-2.335-5.5a35.4,35.4,0,0,1,16.213-4.323c12.527,0,17.715,4.9,17.715,17.423V85.619h-6.485Zm-13.954,2.745c6.928,0,11.306-4.885,13.651-10.69V61.073l-12.527.886c-5.188.411-9.576,3.459-9.576,9.263,0,5.631,2.853,9.706,8.452,9.706Z" transform="translate(-18.18 -35.77)" fill="#1a171b"/>
      <path id="Tracciato_7706" data-name="Tracciato 7706" d="M229.333,42.439H208.04V58.565H222.2v5.9H208.04V85.554h-6.82V36.57h28.1Z" transform="translate(-13.541 -35.705)" fill="#fff"/>
      <path id="Tracciato_7707" data-name="Tracciato 7707" d="M244.778,61.388c1.427,4.269,3.772,11.4,4.994,15.683h.195c1.232-4.323,3.243-10.9,4.9-15.889l7.566-24.233h7.62L253.327,85.524h-7.058L229.3,37h7.642Z" transform="translate(-11.27 -35.675)" fill="#fff"/>
      <path id="Tracciato_7708" data-name="Tracciato 7708" d="M302.836,44.369a37.3,37.3,0,0,0-13.954-2.443c-9.576,0-15.791,7.436-15.791,19.045,0,10.9,5.4,19.553,16.3,19.553a27.605,27.605,0,0,0,8.852-1.081V63.511h6.485V84.285a54.918,54.918,0,0,1-15.478,2.162c-15.067,0-23.519-10.29-23.519-25.357,0-15.78,9.674-25.26,23.119-25.26a42.8,42.8,0,0,1,15.78,2.659Z" transform="translate(-8.325 -35.766)" fill="#fff"/>
    </g>
  </g>
</svg>
