<svg xmlns="http://www.w3.org/2000/svg" viewBox="0 0 50 50"><path d="M39.76 25.19c0 .68-.04 1.37-.17 2.03-.31 2.18-1.14 4.21-2.36 5.93-.85 1.24-1.93 2.34-3.15 3.21-1.7 1.29-3.69 2.16-5.85 2.51-.77.17-1.58.23-2.38.23V11.28c.68 0 1.35.04 2.01.17 2.24.31 4.29 1.16 6.04 2.41 1.18.83 2.24 1.85 3.07 3.01 1.31 1.72 2.22 3.73 2.57 5.93.17.79.23 1.58.23 2.41ZM34.54.79l-.48 11.23a15.689 15.689 0 0 0-7.01-2.79L34.54.79ZM34.93 49.21l-7.44-8.12c2.51-.41 4.82-1.42 6.79-2.92l.65 11.03ZM48.83 14.86l-8.22 7.54c-.41-2.55-1.47-4.89-2.99-6.89l11.2-.65ZM49 34.9l-11.06-.46c1.42-2 2.39-4.36 2.75-6.89L49 34.9ZM22.9 8.82l-2.63 6.85-2.98-6.28 2.47-7.75-1.4-.44-1.99 6.25-2.03-4.29-1.32.63 2.08 4.37-5.9-1.87-.44 1.39 7.18 2.28 2.85 6.03-6.17-2.96-.99.95 2.93 6.73-5.69-1.96-3.82-7.18-1.29.69 3.07 5.79-4.48-1.54-.47 1.39 4.56 1.57L1 22.37l.69 1.29 6.64-3.54h.01l5.31 1.83-6.26 2.21-.03 1.38 6.66 2.71-5.34 2.14-6.82-3.2-.63 1.33 5.6 2.62-4.51 1.8.54 1.36 4.42-1.77-2.79 5.94 1.33.61 3.44-7.34 5.22-2.09-2.91 6.09.92.99 6.79-2.62-2.5 6.04-7.05 2.65.51 1.38L16.02 42l-1.86 4.48 1.35.56 1.81-4.39 2.31 6.14 1.38-.51-2.85-7.62 2.44-5.91 2.3 5.72 1.4-.26V9.09l-1.4-.26Zm-9.16 6.38 6.04 2.88 2.18 4.61s-.18.19-.37.44l-5.16-1.77-2.69-6.16Zm-4.05 9.7 6.2-2.19 5.12 1.77c-.03.1-.03.2-.03.32 0 .22.03.42.07.61l-5.08 2.05-6.29-2.56Zm10.37 7.33-6.36 2.44 2.79-5.85 5.34-2.14c.15.13.29.25.47.34l-.07-.03-2.17 5.24Zm2.78 4.16-1.45-3.58 1.45-3.48v7.07Zm0-15.26-1.71-3.61 1.71-4.48v8.09Z"/></svg>